<svg height="512pt" viewBox="0 -1 512 512" width="512pt" xmlns="http://www.w3.org/2000/svg"><path d="m435.199219 314.5c.011719.070312.023437.140625.042969.207031.03125.558594.121093 1.113281.265624 1.65625-.605468-.171875-1.144531-.460937-1.757812-.605469-2.234375-.582031-4.523438-.921874-6.828125-1.015624-14.148437-46.171876-45.992187-84.871094-88.574219-107.640626l4.265625-17.066406 30.804688-122.027344c4.476562-17.332031-1.113281-35.714843-14.480469-47.621093-13.367188-11.910157-32.265625-15.347657-48.96875-8.914063-16.707031 6.4375-28.414062 21.671875-30.332031 39.46875l-13.226563 118.75-1.875 16.894532.621094.386718c-3.054688-.15625-6.066406-.472656-9.15625-.472656s-6.179688.316406-9.265625.480469l.851563-.222657-1.878907-17.066406-13.34375-118.699218c-1.917969-17.796876-13.625-33.03125-30.332031-39.46875-16.703125-6.433594-35.601562-2.996094-48.96875 8.914062-13.367188 11.90625-18.957031 30.289062-14.480469 47.621094l31.0625 121.941406 4.265625 16.898438.484375-.128907c-60.324219 32.039063-97.910156 94.890625-97.59375 163.199219v60.160156c-42.324219 7.679688-68.265625 18.003906-68.265625 29.441406 0 23.550782 110.761719 42.664063 247.464844 42.664063s247.464844-19.113281 247.464844-42.664063c0-10.496093-21.886719-20.046874-58.1875-27.488281l2.808594-7.679687 5.972656-16.128906 8.875-24.148438 3.070312-8.449219c7.097656-19.925781-.371094-42.117187-18.070312-53.699219zm0 0" fill="#ecf0f1"/><path d="m335.703125 9.265625c-13.035156-2.359375-26.460937.789063-37.085937 8.699219-10.625 7.90625-17.496094 19.867187-18.980469 33.027344l-13.226563 118.699218-1.875 16.894532 11.261719 7 41.214844 25.769531 15.789062 9.8125 9.8125-39.082031 30.804688-122.027344c3.265625-12.832032 1.0625-26.445313-6.085938-37.589844-7.152343-11.144531-18.605469-18.824219-31.628906-21.203125zm0 0" fill="#bdc3c7"/><path d="m232.363281 50.992188c-1.917969-17.796876-13.625-33.03125-30.332031-39.46875-16.703125-6.433594-35.601562-2.996094-48.96875 8.914062-13.367188 11.90625-18.957031 30.289062-14.480469 47.621094l31.0625 121.941406 4.265625 16.898438 16.722656-4.523438 45.058594-12.375 11.859375-3.242188-1.875-17.066406zm0 0" fill="#bdc3c7"/><path d="m373.417969 68.058594-30.804688 122.027344c-5.269531-2.710938-10.679687-5.132813-16.214843-7.253907-2.21875-.851562-4.4375-1.707031-6.65625-2.472656-13.148438-4.648437-26.769532-7.824219-40.617188-9.472656-4.179688-.597657-8.449219-.941407-12.714844-1.195313l13.226563-118.699218c2.183593-19.402344 15.921875-35.542969 34.730469-40.789063 6.945312-1.941406 14.246093-2.261719 21.335937-.9375 13.023437 2.378906 24.476563 10.058594 31.628906 21.203125 7.148438 11.144531 9.351563 24.757812 6.085938 37.589844zm0 0" fill="#cad9fc"/><path d="m348.074219 68.058594-28.332031 112.300781c-13.148438-4.648437-26.769532-7.824219-40.617188-9.472656-4.179688-.597657-8.449219-.941407-12.714844-1.195313l13.226563-118.699218c2.183593-19.402344 15.921875-35.542969 34.730469-40.789063 25.128906 6.875 40.121093 32.605469 33.707031 57.855469zm0 0" fill="#e8edfc"/><path d="m435.199219 430.128906c42.324219 7.679688 68.265625 18.003906 68.265625 29.441406 0 23.550782-110.761719 42.664063-247.464844 42.664063s-247.464844-19.113281-247.464844-42.664063c0-11.4375 25.941406-21.761718 68.265625-29.441406zm0 0" fill="#7facfa"/><path d="m452.265625 459.570312c0 22.695313-91.929687 41.214844-208.136719 42.578126h-2.34375c-3.765625.085937-7.535156.085937-11.386718.085937-122.570313 0-221.863282-19.113281-221.863282-42.664063 0-11.4375 23.277344-21.761718 61.199219-29.441406h321.332031c37.921875 7.679688 61.199219 18.003906 61.199219 29.441406zm0 0" fill="#fff"/><path d="m460.800781 459.570312c0 22.695313-93.695312 41.214844-212.140625 42.578126h-2.386718c-118.445313-1.363282-212.140626-19.882813-212.140626-42.578126 0-11.4375 23.722657-21.761718 62.378907-29.441406h301.910156c38.65625 7.679688 62.378906 18.003906 62.378906 29.441406zm0 0" fill="#a4c2f7"/><path d="m245.675781 169.691406c-4.351562.253906-8.535156.597656-12.800781 1.195313-13.671875 1.601562-27.125 4.71875-40.105469 9.300781-2.390625.769531-4.78125 1.707031-7.167969 2.644531-5.441406 2.113281-10.769531 4.503907-15.957031 7.167969l-31.0625-121.941406c-3.265625-12.832032-1.0625-26.445313 6.085938-37.589844 7.152343-11.144531 18.605469-18.824219 31.628906-21.203125 7.125-1.339844 14.460937-.992187 21.421875 1.023437 18.773438 5.222657 32.488281 21.335938 34.644531 40.703126zm0 0" fill="#fff"/><path d="m245.675781 169.691406c-4.351562.253906-8.535156.597656-12.800781 1.195313-13.671875 1.601562-27.125 4.71875-40.105469 9.300781l-28.589843-112.128906c-6.398438-25.171875 8.503906-50.84375 33.539062-57.769532 18.773438 5.222657 32.488281 21.335938 34.644531 40.703126zm0 0" fill="#e8edfc"/><path d="m238.933594 212.101562-42.835938 11.691407-5.464844-21.417969 45.058594-12.375zm0 0" fill="#ff5364"/><path d="m275.796875 193.585938 41.214844 25.769531-1.109375 4.4375-42.835938-11.691407zm0 0" fill="#ff5364"/><path d="m235.691406 190-45.058594 12.375-5.03125-19.542969c15.167969-6.03125 31.058594-10.046875 47.273438-11.945312zm0 0" fill="#cad9fc"/><path d="m190.632812 202.375-16.722656 4.523438-4.265625-16.898438c5.1875-2.664062 10.515625-5.054688 15.957031-7.167969zm0 0" fill="#cad9fc"/><path d="m247.550781 186.757812-11.859375 3.242188-2.816406-19.113281c4.265625-.597657 8.449219-.941407 12.800781-1.195313zm0 0" fill="#cad9fc"/><path d="m235.691406 190 3.242188 22.101562-42.835938 11.691407-5.464844-21.417969zm0 0" fill="#bdc3c7"/><path d="m326.398438 182.832031-9.386719 36.523438-41.214844-25.769531 3.328125-22.699219c16.214844 1.898437 32.105469 5.914062 47.273438 11.945312zm0 0" fill="#cad9fc"/><path d="m279.125 170.886719-3.328125 22.699219-11.261719-7 1.875-16.894532c4.265625.253906 8.535156.597656 12.714844 1.195313zm0 0" fill="#cad9fc"/><path d="m275.796875 193.585938 41.214844 25.769531-1.109375 4.4375-42.835938-11.691407zm0 0" fill="#bdc3c7"/><path d="m342.613281 190.085938-9.8125 39.082031-15.789062-9.8125 9.386719-36.523438c5.535156 2.121094 10.945312 4.542969 16.214843 7.253907zm0 0" fill="#cad9fc"/><path d="m435.199219 451.035156v-81.066406c1.167969-100.144531-79.058594-182.277344-179.199219-183.46875-100.140625 1.191406-180.367188 83.324219-179.199219 183.46875v81.066406s42.664063 25.601563 179.199219 25.601563 179.199219-25.601563 179.199219-25.601563zm0 0" fill="#cad9fc"/><path d="m409.601562 369.96875v64.425781c-.03125 10.976563-7.078124 20.699219-17.496093 24.148438-20.734375 7.085937-61.949219 16.8125-134.058594 18.007812h-4.09375c-3.5.085938-7.082031.085938-10.753906.085938-81.320313 0-126.804688-10.496094-148.90625-18.09375-10.417969-3.449219-17.460938-13.171875-17.492188-24.148438v-64.425781c-.414062-47.785156 16.953125-94.015625 48.722657-129.707031 29.8125-33.816407 72.597656-53.363281 117.675781-53.761719 4.273437-.015625 8.546875.183594 12.800781.597656 85.929688 7.167969 153.601562 86.359375 153.601562 182.871094zm0 0" fill="#fff"/><path d="m409.601562 369.96875v64.425781c-.03125 10.976563-7.078124 20.699219-17.496093 24.148438-20.734375 7.085937-61.949219 16.8125-134.058594 18.007812h-4.09375c-72.109375-1.195312-113.324219-10.921875-134.058594-18.007812-10.417969-3.449219-17.464843-13.171875-17.496093-24.148438v-64.425781c-.414063-47.785156 16.953124-94.015625 48.726562-129.707031 26.933594-30.402344 64.429688-49.410157 104.875-53.164063 85.929688 7.167969 153.601562 86.359375 153.601562 182.871094zm0 0" fill="#e8edfc"/><path d="m468.054688 367.75c-.441407 2.703125-1.128907 5.359375-2.050782 7.9375l-3.070312 8.445312-8.875 24.152344-5.972656 16.125-9.730469 26.625c-2.347657 1.378906-4.804688 2.578125-7.335938 3.585938-3.585937 1.449218-7.59375 2.8125-11.777343 4.09375-14.675782 4.191406-29.613282 7.410156-44.714844 9.644531-3.242188.511719-5.632813.851563-6.742188 1.023437-.28125.046876-.566406.074219-.851562.085938l6.058594-62.890625 1.707031-17.238281 2.472656-25.6875.855469-8.875c.304687-2.75.875-5.464844 1.707031-8.105469 2.332031-7.695313 6.695313-14.621094 12.628906-20.050781.085938-.085938.085938-.171875.171875-.257813 6.492188-5.90625 14.550782-9.816406 23.207032-11.265625h.085937c2.425781-.414062 4.882813-.613281 7.339844-.597656 1.226562.003906 2.453125.089844 3.667969.257812 2.335937.089844 4.652343.433594 6.914062 1.023438 23.367188 5.539062 38.394531 28.304688 34.304688 51.96875zm0 0" fill="#7facfa"/><path d="m442.710938 375.6875c-.464844 2.933594-1.089844 5.839844-1.878907 8.703125l-2.644531 9.128906-7.511719 26.113281-5.117187 17.40625-6.316406 21.675782c-14.675782 4.191406-29.613282 7.410156-44.714844 9.644531-3.242188.511719-5.632813.851563-6.742188 1.023437l6.316406-55.636718 2.21875-18.859375 3.15625-28.160157 1.195313-9.730468c.316406-2.964844.859375-5.902344 1.621094-8.789063 1.832031-7.8125 5.261719-15.160156 10.070312-21.585937.085938-.085938.085938-.171875.171875-.257813 4.921875-7.257812 13.160156-11.554687 21.929688-11.433593.429687.015624.859375.070312 1.277344.167968h.085937c2.035156.292969 4.015625.867188 5.890625 1.707032 16.382812 7.425781 25.085938 33.539062 20.992188 58.882812zm0 0" fill="#a4c2f7"/><path d="m153.601562 323.035156c-14.140624 0-25.601562-11.460937-25.601562-25.601562 0-14.136719 11.460938-25.597656 25.601562-25.597656 14.136719 0 25.597657 11.460937 25.597657 25.597656 0 14.140625-11.460938 25.601562-25.597657 25.601562zm0 0" fill="#7facfa"/><path d="m256 323.035156c-14.136719 0-25.601562-11.460937-25.601562-25.601562 0-14.136719 11.464843-25.597656 25.601562-25.597656s25.601562 11.460937 25.601562 25.597656c0 14.140625-11.464843 25.601562-25.601562 25.601562zm0 0" fill="#7facfa"/><path d="m146.851562 65.953125 27.355469 107.511719 7.972657 31.324218-16.539063 4.214844-7.96875-31.332031-27.359375-107.503906zm0 0" fill="#fff"/><g fill="#428dff"><path d="m511.308594 285.539062c-1.855469-4.328124-6.871094-6.335937-11.203125-4.480468l-34.707031 14.875 28.238281-45.175782c2.496093-4.003906 1.273437-9.277343-2.730469-11.777343-4.007812-2.496094-9.277344-1.273438-11.777344 2.730469l-26.863281 43.042968v-38.519531c0-4.710937-3.820313-8.53125-8.53125-8.53125-4.714844 0-8.535156 3.820313-8.535156 8.53125v61.152344c-.648438-.148438-1.296875-.230469-1.953125-.351563-14.675782-44.054687-44.976563-81.210937-85.179688-104.449218l33.621094-132.417969c3.910156-15.085938 1.320312-31.117188-7.132812-44.203125-12.859376-20.09375-36.984376-29.90625-60.214844-24.492188-23.234375 5.410156-40.539063 24.875-43.191406 48.582032l-14.242188 127.914062c-.308594 0-.609375 0-.90625 0s-.554688 0-.851562 0l-14.3125-128c-2.691407-23.683594-20.003907-43.105469-43.222657-48.496094s-47.3125 4.417969-60.167969 24.492188c-8.449218 13.085937-11.035156 29.113281-7.132812 44.195312l8.414062 33.074219c.75 2.960937 3.023438 5.296875 5.960938 6.128906 2.941406.832031 6.101562.03125 8.292969-2.097656 2.1875-2.132813 3.074219-5.269531 2.328125-8.230469l-8.414063-33.082031c-3.691406-14.246094.894531-29.355469 11.878907-39.148437 10.980468-9.789063 26.519531-12.617188 40.246093-7.320313 13.726563 5.296875 23.339844 17.824219 24.902344 32.457031l14.15625 126.921875c-20.234375 1.984375-39.996094 7.332031-58.46875 15.820313l-7.507813-29.488282c-.757812-2.957031-3.035156-5.28125-5.972656-6.101562s-6.089844-.011719-8.269531 2.121094c-2.179687 2.132812-3.054687 5.265625-2.296875 8.21875l8.472656 33.28125c-15 8.601562-28.742187 19.226562-40.847656 31.574218-35.425781 36.25-55.15625 84.992188-54.921875 135.679688v53.121094c-60.859375 12.003906-68.265625 26.484375-68.265625 36.480468 0 50.617188 245.546875 51.199219 256 51.199219s256-.582031 256-51.199219c0-14.210937-17.671875-25.011718-55.3125-33.726562l17.339844-47.238281c7.976562-21.730469 1.171875-46.125-16.898438-60.585938l49.699219-21.335937c4.296875-1.855469 6.296875-6.828125 4.480469-11.144532zm-223.1875-233.597656c1.546875-14.644531 11.160156-27.191406 24.894531-32.492187 13.738281-5.304688 29.289063-2.476563 40.273437 7.328125 10.988282 9.804687 15.5625 24.933594 11.851563 39.183594l-32.65625 128.605468c-18.507813-8.402344-38.28125-13.6875-58.511719-15.640625zm171.59375 313.863282-10.929688-2.613282c-4.554687-1.019531-9.085937 1.804688-10.167968 6.34375-1.085938 4.539063 1.675781 9.109375 6.199218 10.253906l9.746094 2.332032-8.882812 24.199218-15.097657-3.59375c-3.011719-.835937-6.246093.042969-8.421875 2.289063-2.175781 2.25-2.945312 5.511719-2.003906 8.496094s3.4375 5.214843 6.511719 5.8125l13.121093 3.132812-9.386718 25.601563c-1.101563 2.871094-.570313 6.113281 1.390625 8.488281 1.957031 2.371094 5.042969 3.503906 8.074219 2.96875 3.027343-.539063 5.53125-2.667969 6.554687-5.570313l4.394531-11.988281c39.652344 8.933594 44.023438 17.371094 44.183594 17.371094-3.964844 12.359375-87.105469 34.375-239 34.375s-235.058594-22.015625-238.933594-33.9375c0-.09375 4.328125-9.675781 51.199219-19.292969v10.5625c0 4.714844 3.820313 8.535156 8.535156 8.535156 4.710938 0 8.53125-3.820312 8.53125-8.535156v-81.066406c-.214843-46.21875 17.761719-90.664062 50.050781-123.734375 31.585938-32.734375 75.128907-51.214844 120.617188-51.199219 71.148438.265625 134.609375 44.804688 159.042969 111.625-24.011719 3.714844-42.609375 22.96875-45.488281 47.09375l-11.09375 94.210938c-.410157 3.050781.855468 6.089844 3.316406 7.945312 2.460937 1.855469 5.730468 2.242188 8.554687 1.007813 2.824219-1.230469 4.765625-3.890625 5.074219-6.957031l4.90625-41.703126 13.117188 3.125c.652343.15625 1.316406.238282 1.988281.238282 4.328125-.003906 7.96875-3.246094 8.46875-7.546875.5-4.296875-2.296875-8.292969-6.507813-9.289063l-15.050781-3.585937 3.011719-25.601563 26.28125 6.273438c.652344.152344 1.320312.230468 1.988281.230468 4.328125-.003906 7.96875-3.246093 8.46875-7.542968.503906-4.300782-2.292969-8.292969-6.503906-9.292969l-27.53125-6.5625c5.082031-16.285156 20.765625-26.882813 37.769531-25.515625.1875 0 .367188 0 .554688.042969 1.820312.160156 3.628906.445312 5.410156.855469 18.804687 4.4375 30.996094 22.640624 27.9375 41.71875zm0 0"/><path d="m213.332031 314.5h-17.066406c-4.710937 0-8.53125 3.824219-8.53125 8.535156 0 4.714844 3.820313 8.535156 8.53125 8.535156 0 4.710938 3.820313 8.53125 8.535156 8.53125 4.710938 0 8.53125-3.820312 8.53125-8.53125 4.714844 0 8.535157-3.820312 8.535157-8.535156 0-4.710937-3.820313-8.535156-8.535157-8.535156zm0 0"/><path d="m213.332031 365.703125h-17.066406c-4.710937 0-8.53125 3.820313-8.53125 8.53125 0 4.714844 3.820313 8.535156 8.53125 8.535156h17.066406c4.714844 0 8.535157-3.820312 8.535157-8.535156 0-4.710937-3.820313-8.53125-8.535157-8.53125zm0 0"/><path d="m154.207031 142.625c1.101563.171875 2.226563.125 3.308594-.136719 3.363281-.835937 5.890625-3.621093 6.390625-7.050781.5-3.433594-1.125-6.824219-4.109375-8.582031l-1.496094-.683594c-.550781-.199219-1.121093-.320313-1.707031-.367187-.527344-.117188-1.070312-.152344-1.613281-.109376-.574219.042969-1.144531.125-1.703125.253907-2.183594.585937-4.058594 1.976562-5.257813 3.890625-.546875.980468-.90625 2.054687-1.050781 3.167968-.460938 3.402344 1.121094 6.761719 4.039062 8.574219.984376.554688 2.074219.910157 3.199219 1.042969zm0 0"/><path d="m153.601562 271.835938c-14.140624 0-25.601562 11.460937-25.601562 25.597656 0 14.140625 11.460938 25.601562 25.601562 25.601562 14.136719 0 25.597657-11.460937 25.597657-25.601562 0-14.136719-11.460938-25.597656-25.597657-25.597656zm0 34.132812c-4.714843 0-8.535156-3.820312-8.535156-8.535156 0-4.710938 3.820313-8.53125 8.535156-8.53125 4.710938 0 8.53125 3.820312 8.53125 8.53125 0 4.714844-3.820312 8.535156-8.53125 8.535156zm0 0"/><path d="m256 271.835938c-14.136719 0-25.601562 11.460937-25.601562 25.597656 0 14.140625 11.464843 25.601562 25.601562 25.601562s25.601562-11.460937 25.601562-25.601562c0-14.136719-11.464843-25.597656-25.601562-25.597656zm0 34.132812c-4.710938 0-8.535156-3.820312-8.535156-8.535156 0-4.710938 3.824218-8.53125 8.535156-8.53125s8.535156 3.820312 8.535156 8.53125c0 4.714844-3.824218 8.535156-8.535156 8.535156zm0 0"/></g></svg>